# xmcd
#
# Track frame offsets:
#	182
#	12915
#	24047
#	37025
#	48342
#	62627
#	71945
#	83960
#	95650
#	106120
#	116472
#	128472
#	139957
#	150602
#	163072
#	175220
#	186165
#	196555
#	206982
#	219422
#	228540
#	240057
#	251647
#	264942
#
# Disc length: 3696 seconds
#
# Revision: 1
# Processed by: cddbd v1.5.2PL0 Copyright (c) Steve Scherf et al.
# Submitted via: EZCDAudioConverter 7.0.0.1
#
DISCID=420e6e18
DTITLE=Loretta Lynn - Very Best of Loretta Lynn
DYEAR=2004
DGENRE=Country
TTITLE0=Coal Miners Daughter
TTITLE1=Fist City
TTITLE2=Woman of the World (Leave My Man Alone)
TTITLE3=After the Fire Is Gone
TTITLE4=Somebody Somewhere
TTITLE5=Trouble in Paradise
TTITLE6=Love Is the Foundation
TTITLE7=She's Got You
TTITLE8=You're Lookin' at Country
TTITLE9=Wine Women and Song
TTITLE10=Out of My Head and Back in My Bed
TTITLE11=Don't Come Home a Drinkin' (With Lovin' on Your Mind)
TTITLE12=As Soon as I Hang Up the Phone
TTITLE13=One's on the Way
TTITLE14=Rated X
TTITLE15=Hey Loretta
TTITLE16=Lead Me On
TTITLE17=Your Squaw Is on the Warpath
TTITLE18=The Pill
TTITLE19=You Ain't Woman Enough
TTITLE20=Before I'm Over You
TTITLE21=Paper Roses
TTITLE22=Blue Kentucky Girl
TTITLE23=The Letter
EXTD=
EXTT0=
EXTT1=
EXTT2=
EXTT3=
EXTT4=
EXTT5=
EXTT6=
EXTT7=
EXTT8=
EXTT9=
EXTT10=
EXTT11=
EXTT12=
EXTT13=
EXTT14=
EXTT15=
EXTT16=
EXTT17=
EXTT18=
EXTT19=
EXTT20=
EXTT21=
EXTT22=
EXTT23=
PLAYORDER=
